<svg id="Layer_5" enable-background="new 0 0 64 64" height="512" viewBox="0 0 64 64" width="512" xmlns="http://www.w3.org/2000/svg"><path d="m58 17c0-3.86-2.691-7-6-7-1.608 0-3.123.744-4.243 2.057-.275-.038-.555-.057-.837-.057-1.251 0-2.458.4-3.482 1.101.357-.969.562-2.01.562-3.101 0-.338-.022-.671-.059-1h2.059v-2h-2.525c-1.239-3.49-4.565-6-8.475-6s-7.236 2.51-8.475 6h-2.525v2h2.059c-.037.329-.059.662-.059 1 0 3.221 1.707 6.045 4.258 7.635l-12.274 5.046c-.167-3.16-2.783-5.681-5.984-5.681-3.309 0-6 2.691-6 6 0 2.215 1.21 4.149 3 5.188v31.812c0 1.654 1.346 3 3 3s3-1.346 3-3v-27.495l12-4.797v10.878l-2.535 2.536c-.944.944-1.465 2.2-1.465 3.535v10.343h-2c-2.206 0-4 1.794-4 4s1.794 4 4 4h7c2.206 0 4-1.794 4-4v-11.62l4.051-4.558 4.678 11.695-1.469.734c-1.394.698-2.26 2.1-2.26 3.659 0 2.255 1.835 4.09 4.09 4.09h.181c.631 0 1.263-.149 1.829-.432l5.582-2.791c1.429-.715 2.318-2.152 2.318-3.741.009-.868-.255-1.69-.765-2.389l-6.963-15.666 1.343-.54c.894-.36 1.671-.898 2.323-1.548.927-.091 1.871-.234 2.817-.449 4.198-.955 7.245-4.812 7.245-9.173v-.124c0-1.39-.328-2.764-.92-4.019 1.212-1.314 1.92-3.175 1.92-5.128zm-6-5c2.206 0 4 2.243 4 5 0 1.182-.342 2.303-.938 3.192l-2.709-4.967c-.578-1.06-1.444-1.896-2.465-2.456.629-.494 1.359-.769 2.112-.769zm-17-9c2.785 0 5.188 1.639 6.315 4h-12.63c1.127-2.361 3.53-4 6.315-4zm-7 7c0-.34.033-.672.08-1h13.84c.047.328.08.66.08 1 0 3.86-3.141 7-7 7s-7-3.14-7-7zm4 9.16v10.84c0 .551-.448 1-1 1h-2v-10.685l2.284-.939c.233-.096.474-.157.716-.216zm-20-.16c2.206 0 4 1.794 4 4s-1.794 4-4 4-4-1.794-4-4 1.794-4 4-4zm0 42c-.552 0-1-.449-1-1v-31.09c.326.055.659.09 1 .09s.674-.035 1-.09v31.09c0 .551-.448 1-1 1zm3-30.646v-2.166c1.23-.714 2.181-1.85 2.658-3.211l9.342-3.84v4.417zm13 30.646h-7c-1.103 0-2-.897-2-2s.897-2 2-2h4v-5h5v7c0 1.103-.897 2-2 2zm2.506-14.949c-.326.366-.506.839-.506 1.329v2.62h-5v-5.343c0-.79.32-1.562.879-2.121l3.121-3.122v-6.414h2c1.654 0 3-1.346 3-3v-11h4v12.417l-4.487 1.87c-2.046.82-3.045 3.152-2.228 5.199.612 1.526 2.068 2.513 3.711 2.514zm9.494-27.051h2c.343 0 .677.035 1 .101v10.233l-3 1.25zm8.579 35.772c.28.359.426.789.421 1.253 0 .836-.465 1.588-1.213 1.962l-5.581 2.791c-.29.145-.613.222-.935.222h-.181c-1.152 0-2.09-.938-2.09-2.09 0-.797.442-1.513 1.155-1.869l3.115-1.558-2.333-5.833 4.363-2.181 3.154 7.096zm-4.092-9.134-4.295 2.147-2.951-7.376 4.174-1.68zm-.619-10.052-8.124 3.271c-1.011.402-2.201-.113-2.602-1.114-.409-1.023.091-2.19 1.127-2.605l9.5-3.958c.748-.312 1.23-1.036 1.23-1.846v-9.331c1.214.913 2 2.365 2 3.998v6.948c.001 2.05-1.228 3.871-3.131 4.637zm11.132-9.315c0 3.435-2.393 6.473-5.688 7.222-.291.066-.581.113-.871.167.353-.842.56-1.756.56-2.713v-6.947c0-3.86-3.141-7-7-7h-.13l2.324-1.992c.757-.65 1.726-1.008 2.725-1.008 1.533 0 2.942.836 3.677 2.183l3.497 6.411c.593 1.086.906 2.315.906 3.554z"/></svg>